<?xml version="1.0" encoding="UTF-8"?><svg xmlns="http://www.w3.org/2000/svg" xmlns:xlink="http://www.w3.org/1999/xlink" viewBox="0 0 24 24" version="1.1">
<path fill="#bbb" d="M13.406 2.031c1.09 2.192-3.91 3.551-4.375 5.375-.426 1.68 2.965 3.625 2.969 3.625-.516-.695-.89-1.261-1.406-2.344-.871-1.828 5.164-3.718 2.812-6.656zm3.594 3s-3.805.246-4 2.563c-.086 1.031 1 1.593 1.031 2.343.028.614-.656 1.094-.656 1.094s1.117-.16 1.5-1.094c.422-1.035-.723-1.792-.594-2.624C14.402 6.516 17 5.03 17 5.03zm-7.094 6S6 11.008 6 12.094c0 1.136 5.098 1.199 8.75.5 0 0 .836-.446 1.094-.688-2.395.48-7.688.32-7.688-.094 0-.382 1.75-.78 1.75-.78zm7.781.031a2.14 2.14 0 0 0-1.312.407c.844-.184 1.563.336 1.563.937 0 1.348-1.938 2.625-1.938 2.625s3-.344 3-2.562c0-.918-.598-1.375-1.313-1.406zm-9.156 1.97c-.61 0-1.531.503-1.531.968 0 .938 4.598 1.648 8 .281l-1.188-.75c-2.308.758-6.539.512-5.28-.5zm.844 2c-.84 0-1.375.585-1.375 1 0 1.277 5.012 1.3 7 0l-1.25-.782c-1.484.68-5.234.766-4.375-.219zM5.75 17C4.555 16.96 4 17.563 4 18.063c0 2.656 13 2.558 13-.157 0-.449-.504-.68-.688-.781 1.063 2.598-10.75 2.406-10.75.875 0-.348.61-.691 1.407-.531 0 0-.27-.34-.657-.407-.199-.035-.39-.058-.562-.062zM19 19c-2.063 2.02-7.742 3.246-13 2 5.281 2.14 12.977.48 13-2z" id="surface1"/><metadata><rdf:RDF xmlns:rdf="http://www.w3.org/1999/02/22-rdf-syntax-ns#" xmlns:rdfs="http://www.w3.org/2000/01/rdf-schema#" xmlns:dc="http://purl.org/dc/elements/1.1/"><rdf:Description about="https://iconscout.com/legal#licenses" dc:title="java" dc:description="java" dc:publisher="Iconscout" dc:date="2018-06-22" dc:format="image/svg+xml" dc:language="en"><dc:creator><rdf:Bag><rdf:li>Icons8</rdf:li></rdf:Bag></dc:creator></rdf:Description></rdf:RDF></metadata></svg>